<svg xmlns="http://www.w3.org/2000/svg" xmlns:xlink="http://www.w3.org/1999/xlink" width="500" zoomAndPan="magnify" viewBox="0 0 375 374.999991" height="500" preserveAspectRatio="xMidYMid meet" version="1.0"><defs><clipPath id="cf8a399a03"><path d="M 18.75 1 L 349 1 L 349 363 L 18.75 363 Z M 18.75 1 " clip-rule="nonzero"/></clipPath></defs><rect x="-37.5" width="450" fill="#ffffff" y="-37.499999" height="449.999989" fill-opacity="1"/><g clip-path="url(#cf8a399a03)"><path fill="#840c96" d="M 18.96875 64.632812 L 18.96875 278.386719 C 18.730469 302.082031 27.679688 324.949219 43.9375 342.1875 C 62.628906 361.574219 92.15625 374.867188 133.597656 344.90625 L 318.402344 237.445312 C 327.910156 232.046875 335.839844 224.261719 341.398438 214.847656 C 351.308594 197.632812 356.238281 169.347656 322.539062 132.957031 C 318.238281 128.347656 313.269531 124.40625 307.796875 121.269531 L 114.089844 9.640625 C 100.894531 1.949219 85.355469 -0.667969 70.363281 2.257812 C 68.402344 2.648438 66.394531 3.132812 64.363281 3.703125 C 37.335938 11.613281 18.816406 36.472656 18.96875 64.632812 Z M 73.015625 100.703125 C 80.257812 100.703125 86.128906 106.574219 86.128906 113.816406 L 86.128906 249.699219 C 86.128906 256.941406 80.257812 262.8125 73.015625 262.8125 C 65.773438 262.8125 59.902344 256.941406 59.902344 249.699219 L 59.902344 113.816406 C 59.902344 106.582031 65.773438 100.703125 73.015625 100.703125 Z M 163.125 150.769531 C 170.371094 150.769531 176.238281 156.636719 176.238281 163.882812 L 176.238281 199.632812 C 176.238281 206.875 170.371094 212.746094 163.125 212.746094 C 155.882812 212.746094 150.015625 206.875 150.015625 199.632812 L 150.015625 163.882812 C 150.023438 156.636719 155.890625 150.769531 163.125 150.769531 Z M 201.273438 167.453125 C 208.515625 167.453125 214.382812 173.320312 214.382812 180.566406 L 214.382812 182.941406 C 214.382812 190.1875 208.515625 196.054688 201.273438 196.054688 C 194.027344 196.054688 188.160156 190.1875 188.160156 182.941406 L 188.160156 180.566406 C 188.160156 173.328125 194.027344 167.453125 201.273438 167.453125 Z M 239.410156 131.699219 C 246.652344 131.699219 252.523438 137.570312 252.523438 144.8125 L 252.523438 218.710938 C 252.523438 225.953125 246.652344 231.820312 239.410156 231.820312 C 232.167969 231.820312 226.296875 225.953125 226.296875 218.710938 L 226.296875 144.8125 C 226.296875 137.570312 232.167969 131.699219 239.410156 131.699219 Z M 279.941406 149.574219 C 287.183594 149.574219 293.050781 155.445312 293.050781 162.6875 L 293.050781 200.828125 C 293.050781 208.070312 287.183594 213.9375 279.941406 213.9375 C 272.695312 213.9375 266.828125 208.070312 266.828125 200.828125 L 266.828125 162.6875 C 266.828125 155.445312 272.695312 149.574219 279.941406 149.574219 Z M 118.304688 66.144531 C 125.546875 66.144531 131.414062 72.015625 131.414062 79.257812 L 131.414062 284.265625 C 131.414062 291.507812 125.546875 297.378906 118.300781 297.378906 C 111.058594 297.378906 105.191406 291.507812 105.191406 284.265625 L 105.191406 79.257812 C 105.199219 72.015625 111.066406 66.144531 118.304688 66.144531 Z M 118.304688 66.144531 " fill-opacity="1" fill-rule="nonzero"/></g></svg>